<svg xmlns="http://www.w3.org/2000/svg" version="1.1" xmlns:xlink="http://www.w3.org/1999/xlink" xmlns:svgjs="http://svgjs.com/svgjs" width="56" height="58"><svg width="56" height="58" viewBox="0 0 56 58" fill="none" xmlns="http://www.w3.org/2000/svg">
<path d="M42.1879 0.91626H42.1281C41.2312 0.938404 40.3193 1.01222 39.4224 1.12294C38.5928 1.22628 37.7856 1.44772 37.0232 1.77989H37.0082C36.4477 2.03824 35.8721 2.25968 35.2817 2.45898C32.9945 3.25617 30.5355 3.68429 27.9718 3.68429C25.4081 3.68429 22.9491 3.25617 20.6619 2.45898C20.0715 2.25968 19.4959 2.03085 18.9354 1.78727H18.9204C18.158 1.44772 17.3508 1.2189 16.5212 1.12294C15.6243 1.01222 14.7199 0.938404 13.8155 0.91626H13.7557C6.58036 1.18937 0.817679 6.90997 0.608398 14.0109C0.638296 15.2215 0.80273 16.5575 1.19887 17.9673C1.38573 18.639 1.6548 19.2812 1.96872 19.9013C2.26769 20.4844 2.71615 21.3628 3.23188 22.3888C3.29915 22.5291 3.37389 22.6693 3.44863 22.8169C4.27828 24.4851 5.24994 26.4781 6.05716 28.2497C7.13346 30.6265 7.7912 33.114 8.00795 35.6458C8.09764 36.694 8.17239 37.9415 8.20976 39.403C8.20976 39.6318 8.22471 39.8606 8.22471 40.0968C8.22471 40.5102 8.23218 40.9457 8.23218 41.3886C8.23218 42.7763 8.38167 44.0902 8.61337 45.3007C8.81518 46.3637 9.07678 47.338 9.36827 48.2164C9.95127 49.9953 10.624 51.3535 11.0425 52.1064C11.0425 52.1064 11.0425 52.1138 11.05 52.1212C12.3505 54.1732 14.1967 55.8488 16.3866 56.9634C16.4614 56.9855 18.4196 57.5908 18.8831 56.2326C19.4212 54.653 19.1521 49.9806 18.9802 47.7218C18.8532 45.9946 17.8142 44.4519 16.2372 43.699C16.2147 43.6842 16.1923 43.6768 16.1624 43.6621C14.1219 42.7099 10.6763 40.333 9.74946 39.4251C9.67472 39.3513 9.45797 39.1446 9.3309 39.0044C8.86002 38.4877 9.35333 37.6388 10.026 37.8307C10.1232 37.8603 10.2203 37.9046 10.31 37.9784C10.4072 38.0522 11.4387 39.2111 11.4387 39.2111C12.7616 40.5323 14.0173 41.2041 14.092 41.2631C14.533 41.5657 16.2596 42.6877 16.3119 41.6691C16.3119 41.5215 14.9366 38.532 13.9276 36.5316C12.8438 34.3689 11.3789 29.7112 11.3191 27.1424C11.3191 26.9284 11.3863 26.7143 11.5283 26.5519C11.8049 26.2419 12.074 26.3083 12.1113 26.6627C12.2608 28.3087 12.515 29.6005 12.8513 30.9882C12.8737 31.0841 13.2848 32.5973 13.6137 33.4019C13.8454 33.9629 14.1219 34.6493 14.1219 34.6493C14.6003 35.5573 15.5047 33.6086 15.5121 33.5864C15.5121 33.5864 17.0369 30.2943 16.5361 25.2085C16.5062 24.9206 16.7305 24.6771 17.022 24.6771H17.0743C17.4854 24.6771 17.8142 25.024 17.7769 25.43C17.6274 27.0982 17.2387 31.0103 16.9547 31.8001C16.9397 31.837 16.5436 34.2877 15.1908 35.9559C15.0338 36.1478 14.9964 36.4135 15.1011 36.6423C15.8036 38.2146 18.4645 44.068 19.5707 44.6069C20.6096 45.1236 25.8342 38.2441 27.6953 35.727C28.0017 35.3137 28.6445 35.358 28.8837 35.8156L28.9509 35.9337C29.078 36.1773 29.0556 36.4726 28.8762 36.6866C27.6654 38.1924 22.7921 43.8318 21.7532 44.784C20.4601 45.9725 20.5872 46.7992 20.5722 47.0723L20.4003 55.7971C20.3929 56.2917 20.49 56.7936 20.7143 57.2365C20.7815 57.362 20.8936 57.4801 21.0431 57.5982C21.6112 58.0485 22.4184 58.1149 23.0462 57.7458C23.0462 57.7458 23.0462 57.7458 23.0537 57.7458H23.0687V57.7384C23.7413 57.2291 24.2571 56.4688 24.5934 55.5166C24.8027 54.9335 24.9447 54.2839 25.0344 53.5679C25.0792 53.2136 25.1166 52.195 25.1166 51.4864C25.1166 51.2206 25.1241 50.9549 25.139 50.6966C25.311 47.4561 26.5143 44.9464 27.9718 44.9464C29.4293 44.9464 30.6327 47.4561 30.8046 50.6966C30.8195 50.9549 30.827 51.2206 30.827 51.4864C30.827 52.195 30.8644 53.2136 30.9092 53.5679C30.9914 54.2765 31.1409 54.9335 31.3502 55.5166C31.694 56.4688 32.2023 57.2217 32.8749 57.7384C32.8749 57.7384 32.8824 57.7384 32.8899 57.7384C32.8899 57.7384 32.8899 57.7384 32.8974 57.7384C33.9811 58.3732 35.3788 57.672 35.5433 56.4467C35.5657 56.2769 35.5806 56.0924 35.5806 55.8931C35.5956 55.2288 35.461 47.1978 35.4162 44.4593C35.4013 43.5587 35.2518 42.673 34.9453 41.8241C34.7585 41.3148 34.7211 41.1893 34.1904 40.4807C33.7644 39.9197 31.1334 38.1629 29.5937 35.5942C27.9569 32.8704 27.3215 29.4012 27.0898 28.4859C27.0375 28.2792 27.1347 28.0651 27.329 27.9618L27.5682 27.8363C27.8447 27.6961 28.1811 27.8437 28.2484 28.1389C28.5398 29.3716 29.1004 32.5087 30.6401 35.1291C32.4788 38.2367 35.6105 40.1264 36.2683 39.8902C37.068 39.6023 40.5361 32.0289 40.6407 31.276C40.6632 31.1358 41.6572 29.128 41.3732 28.7073C39.6541 26.2198 38.7273 22.8834 38.7273 22.8834C37.1502 18.1445 37.7706 15.0591 38.2116 14.0626C38.2564 13.9666 38.234 13.8633 38.3685 13.8042C38.518 13.7304 38.7049 13.7968 38.7871 13.9371C39.4598 15.1033 38.6376 17.2144 39.3626 21.134C39.6691 22.7874 42.0384 28.9657 43.0998 28.1242C44.0565 27.3713 45.514 25.4595 46.0895 22.1969C46.8593 17.8345 45.813 17.8345 45.9251 16.7716C45.9699 16.3139 46.6202 16.0408 47.0911 16.432C48.0029 17.1923 48.2869 19.4732 46.8145 24.0201C45.6485 27.6296 43.5781 28.4563 42.1804 31.2613C41.2312 33.1731 39.258 36.7235 39.5345 37.159C39.9531 37.816 41.2088 36.6792 41.3732 36.5538C41.6946 36.3028 42.9279 35.2842 42.9279 35.2842C44.0789 34.3098 45.4168 32.9073 45.8653 32.3833C45.8653 32.3833 47.1807 30.6781 47.5769 31.3794C47.5769 31.3794 47.8235 32.4202 46.6725 33.6529C45.94 34.4353 42.1505 37.6462 39.9307 38.9896C38.8619 39.6392 38.1966 40.5988 37.7856 41.4772C37.3595 42.3925 37.1502 43.389 37.1203 44.4002C37.0531 46.7401 36.8587 54.2765 37.1428 55.7824C37.4791 57.6129 38.2191 57.5244 38.3835 57.4875C41.0892 56.4172 43.3689 54.5275 44.9011 52.1212L44.9086 52.1064C45.3271 51.3535 45.9998 49.9953 46.5828 48.2164C46.8743 47.338 47.1359 46.3637 47.3377 45.3081C47.5694 44.0976 47.7189 42.7763 47.7189 41.396C47.7189 40.9531 47.7189 40.5176 47.7264 40.1042C47.7264 39.8606 47.7338 39.6318 47.7413 39.403C47.7787 37.9415 47.8534 36.694 47.9431 35.6458C48.1599 33.114 48.8176 30.6265 49.8939 28.2497C50.7011 26.4781 51.6653 24.4851 52.5024 22.8169C52.5772 22.6693 52.6445 22.5291 52.7192 22.3888C53.2349 21.3628 53.6834 20.4918 53.9824 19.9013C54.3038 19.2812 54.5728 18.639 54.7522 17.9673C55.1483 16.5649 55.3128 15.2288 55.3427 14.0109C55.1334 6.90997 49.3707 1.18199 42.1954 0.91626H42.1879Z" fill="#1F3475"></path>
</svg><style>@media (prefers-color-scheme: light) { :root { filter: none; } }
</style></svg>